<svg width="755" height="449" viewBox="0 0 755 449" fill="none" xmlns="http://www.w3.org/2000/svg">
<path d="M324.713 196.617H337.351L331.025 181.46L324.713 196.617Z" fill="#00C178"/>
<mask id="mask0_15_121" style="mask-type:luminance" maskUnits="userSpaceOnUse" x="259" y="123" width="144" height="162">
<path d="M259.748 123.28H402.816V284.153H259.748V123.28Z" fill="white"/>
</mask>
<g mask="url(#mask0_15_121)">
<path d="M354.983 227.446C354.454 227.704 353.881 227.79 353.295 227.79C351.577 227.79 349.917 226.774 349.201 225.028L341.057 205.52H321.006L312.862 225.028C311.903 227.361 309.284 228.42 307.051 227.446C304.789 226.516 303.659 223.883 304.646 221.664L313.835 199.652C313.878 199.423 313.964 199.208 314.093 199.022L326.917 168.193C327.589 166.49 329.25 165.43 331.024 165.43C332.813 165.43 334.445 166.49 335.118 168.193L347.956 199.022C348.099 199.208 348.185 199.423 348.228 199.652L357.402 221.664C358.375 223.883 357.259 226.516 354.983 227.446ZM401.8 188.33C401.671 186.956 401.513 185.611 401.227 184.28C400.998 182.877 400.74 181.589 400.426 180.272C400.383 180.086 400.34 179.915 400.297 179.729C400.125 178.827 399.853 177.982 399.581 177.095C399.581 177.009 399.581 176.966 399.538 176.88C399.495 176.608 399.409 176.351 399.324 176.079C399.152 175.378 398.923 174.648 398.637 173.975C398.508 173.574 398.393 173.131 398.236 172.73C397.878 171.714 397.477 170.726 397.091 169.753C396.69 168.765 396.289 167.835 395.846 166.89C395.187 165.387 394.429 163.928 393.656 162.482C393.57 162.353 393.513 162.21 393.427 162.124C393.126 161.552 392.811 160.979 392.454 160.45C392.411 160.307 392.325 160.178 392.239 160.049C392.01 159.577 391.752 159.176 391.437 158.732C391.309 158.475 391.122 158.246 390.994 158.031C390.593 157.415 390.135 156.786 389.734 156.17C389.62 155.998 389.505 155.812 389.376 155.655C389.376 155.612 389.333 155.612 389.29 155.569C389.061 155.211 388.847 154.868 388.575 154.553C388.403 154.281 388.188 154.023 388.002 153.751C387.788 153.494 387.602 153.265 387.43 153.007C387.387 152.907 387.301 152.864 387.201 152.778C386.943 152.42 386.714 152.077 386.414 151.733C386.328 151.605 386.17 151.476 386.084 151.347C385.641 150.76 385.154 150.231 384.653 149.701C384.353 149.343 384.038 149 383.68 148.642C383.637 148.556 383.551 148.456 383.465 148.37C383.065 147.926 382.649 147.511 382.249 147.11C382.063 146.896 381.891 146.71 381.719 146.581C380.961 145.779 380.202 145.078 379.458 144.405C379.415 144.319 379.415 144.319 379.372 144.319C378.885 143.861 378.413 143.418 377.926 143.017C377.483 142.616 376.996 142.216 376.509 141.815C376.466 141.772 376.466 141.772 376.424 141.729V141.686C375.751 141.156 375.092 140.627 374.405 140.069H374.363C372.817 138.866 371.214 137.721 369.554 136.662C369.239 136.433 368.895 136.19 368.537 135.975C366.891 135.002 365.231 134.029 363.514 133.184C362.726 132.741 361.939 132.311 361.095 131.968C358.232 130.594 355.298 129.477 352.235 128.49C351.706 128.347 351.148 128.175 350.618 128.046C348.629 127.459 346.525 126.973 344.435 126.586C343.548 126.4 342.646 126.271 341.759 126.143C339.898 125.828 337.966 125.656 336.062 125.513C335.204 125.427 334.402 125.427 333.558 125.384C332.727 125.341 331.854 125.341 331.024 125.341C291.722 125.341 259.748 157.315 259.748 196.617C259.748 197.934 259.791 199.294 259.877 200.668C259.963 202.858 260.192 205.033 260.55 207.223C260.635 207.667 260.678 208.153 260.764 208.64C261.036 210.071 261.294 211.445 261.609 212.819C261.666 212.962 261.666 213.091 261.695 213.22C262.024 214.436 262.339 215.596 262.653 216.741C262.739 217.056 262.825 217.328 262.911 217.585C263.312 218.931 263.756 220.219 264.242 221.507C264.772 222.952 265.344 224.269 265.945 225.672C266.346 226.602 266.79 227.532 267.276 228.463C267.806 229.55 268.378 230.61 268.965 231.669C269.595 232.742 270.225 233.773 270.883 234.789C271.513 235.819 272.214 236.835 272.93 237.823C275.248 241.086 277.839 244.192 280.716 247.04C281.36 247.67 281.975 248.243 282.648 248.887L281.847 251.491L273.273 279.959C273.273 280.002 273.259 280.116 273.259 280.159C272.787 281.877 273.431 283.695 274.891 284.825C275.649 285.398 276.622 285.713 277.581 285.713C278.412 285.713 279.213 285.498 279.972 285.011L309.641 266.162L311.287 265.088C311.903 265.274 312.475 265.446 313.119 265.575C313.921 265.804 314.722 265.976 315.51 266.162C315.982 266.291 316.468 266.334 316.912 266.462C318.415 266.777 319.875 267.049 321.406 267.221C322.78 267.436 324.197 267.579 325.586 267.665C325.9 267.708 326.172 267.708 326.43 267.708C327.961 267.836 329.507 267.879 331.024 267.879C334.23 267.879 337.393 267.665 340.513 267.264C341.444 267.135 342.374 266.992 343.304 266.82C344.306 266.648 345.28 266.462 346.253 266.248C347.054 266.062 347.827 265.89 348.586 265.675C349.731 265.403 350.89 265.045 352.064 264.702C353.08 264.358 354.096 264.058 355.141 263.657C356.157 263.299 357.087 262.941 358.061 262.541C358.862 262.24 359.678 261.882 360.436 261.525C361.453 261.081 362.469 260.594 363.471 260.05C364.258 259.65 365.059 259.206 365.861 258.762C368.409 257.345 370.842 255.771 373.203 254.039C374.191 253.295 375.178 252.508 376.152 251.72C381.275 247.527 385.813 242.675 389.577 237.208C390.135 236.392 390.679 235.59 391.165 234.789C391.223 234.746 391.266 234.703 391.266 234.66C391.795 233.858 392.282 233 392.725 232.198C393.498 231.01 394.157 229.765 394.786 228.463C395.001 227.976 395.273 227.446 395.488 226.96C396.375 225.156 397.177 223.296 397.835 221.378C398.551 219.517 399.195 217.585 399.681 215.639C399.767 215.51 399.81 215.367 399.81 215.195C400.025 214.537 400.211 213.821 400.34 213.091C400.383 212.962 400.426 212.776 400.426 212.647C400.612 211.889 400.783 211.145 400.955 210.343C401.299 208.769 401.556 207.223 401.714 205.649C401.871 204.675 402 203.702 402.029 202.729V202.543C402.072 202.328 402.072 202.099 402.072 201.899C402.114 201.856 402.114 201.856 402.114 201.813C402.157 201.24 402.229 200.668 402.229 200.095C402.272 198.936 402.315 197.762 402.315 196.617C402.315 193.927 402.157 191.279 401.871 188.645C401.871 188.545 401.871 188.416 401.8 188.33Z" fill="#00C178"/>
</g>
<mask id="mask1_15_121" style="mask-type:luminance" maskUnits="userSpaceOnUse" x="369" y="80" width="141" height="165">
<path d="M369.84 80.8005H509.558V244.192H369.84V80.8005Z" fill="white"/>
</mask>
<g mask="url(#mask1_15_121)">
<path d="M466.091 174.547C468.396 175.378 469.669 177.854 468.911 180.23C468.295 182.076 466.535 183.264 464.674 183.264C464.231 183.264 463.73 183.164 463.243 183.035C454.47 180.086 447.643 176.351 442.404 172.2C437.123 176.351 430.324 180.086 421.537 183.035C421.064 183.164 420.563 183.264 420.12 183.264C418.259 183.264 416.513 182.076 415.883 180.23C415.139 177.854 416.37 175.378 418.703 174.547C425.859 172.2 431.484 169.209 435.849 165.96C426.846 155.855 424.9 144.935 424.528 138.695H420.12C417.658 138.695 415.668 136.705 415.668 134.243C415.668 131.782 417.658 129.792 420.12 129.792H437.953V125.341C437.953 122.879 439.942 120.89 442.404 120.89C444.852 120.89 446.855 122.879 446.855 125.341V129.792H464.674C467.122 129.792 469.126 131.782 469.126 134.243C469.126 136.705 467.122 138.695 464.674 138.695H460.252C459.894 144.935 457.948 155.855 448.931 165.96C453.325 169.209 458.921 172.157 466.091 174.547ZM486.315 204.317C500.899 190.878 509.215 171.986 509.215 152.077C509.215 112.76 477.241 80.772 437.953 80.772C407.696 80.772 381.318 99.8935 371.128 127.202C373.747 128.733 376.338 130.408 378.828 132.268C379.186 132.512 379.501 132.784 379.859 133.041C399.767 148.284 411.217 171.456 411.217 196.617C411.217 200.095 410.988 203.43 410.602 206.779C410.53 207.223 410.459 207.667 410.416 208.067C409.958 211.145 409.4 214.136 408.584 217.013C417.658 221.192 427.605 223.339 437.953 223.339C444.565 223.339 451.221 222.408 457.676 220.534L489.006 240.442C489.75 240.929 490.551 241.172 491.396 241.172C492.34 241.172 493.314 240.843 494.072 240.27C495.575 239.111 496.219 237.208 495.661 235.419L486.315 204.317Z" fill="#00C178"/>
</g>
<path d="M442.405 160.049C449.504 151.934 451.121 143.461 451.393 138.695H433.345C433.559 143.461 435.177 151.991 442.405 160.049Z" fill="#00C178"/>
<path d="M133.292 226.756H120.354V233.168H131.918V236.775H120.354V243.302H133.693V246.908H116.346V223.15H133.292V226.756Z" fill="#272727"/>
<path d="M152.325 222.978C155.416 222.978 158.178 223.808 160.626 225.44L158.966 228.932C156.561 227.486 154.242 226.757 152.038 226.757C150.807 226.757 149.863 226.971 149.176 227.386C148.489 227.816 148.145 228.417 148.145 229.218C148.145 230.02 148.446 230.707 149.061 231.279C149.705 231.823 150.507 232.224 151.466 232.482C152.41 232.711 153.441 233.04 154.557 233.455C155.659 233.841 156.69 234.256 157.649 234.714C158.593 235.144 159.381 235.831 159.996 236.775C160.64 237.734 160.969 238.879 160.969 240.21C160.969 242.271 160.125 243.932 158.45 245.191C156.761 246.422 154.615 247.023 151.981 247.023C150.178 247.023 148.432 246.708 146.714 246.05C145.025 245.363 143.537 244.447 142.249 243.302L144.023 239.81C145.197 240.926 146.499 241.785 147.916 242.386C149.362 243.001 150.736 243.302 152.038 243.302C153.441 243.302 154.529 243.058 155.302 242.558C156.103 242.028 156.504 241.298 156.504 240.382C156.504 239.581 156.175 238.922 155.531 238.378C154.915 237.806 154.128 237.391 153.183 237.119C152.224 236.861 151.194 236.546 150.092 236.203C148.975 235.831 147.945 235.43 147 235.001C146.041 234.585 145.24 233.913 144.596 232.997C143.98 232.052 143.68 230.921 143.68 229.619C143.68 227.601 144.453 225.998 146.027 224.81C147.63 223.593 149.72 222.978 152.325 222.978Z" fill="#272727"/>
<path d="M187.778 226.756H180.221V246.908H176.213V226.756H168.713V223.15H187.778V226.756Z" fill="#272727"/>
<path d="M197.153 223.15H206.886C210.435 223.15 213.355 224.28 215.645 226.527C217.964 228.746 219.137 231.594 219.137 235.058C219.137 238.493 217.964 241.341 215.645 243.588C213.312 245.806 210.349 246.908 206.771 246.908H197.153V223.15ZM201.161 226.756V243.302H207C209.319 243.302 211.251 242.543 212.783 241.012C214.343 239.452 215.13 237.462 215.13 235.058C215.13 232.653 214.328 230.678 212.725 229.104C211.122 227.544 209.147 226.756 206.829 226.756H201.161Z" fill="#272727"/>
<path d="M547.417 222.978C549.664 222.978 551.482 223.536 552.856 224.638C554.259 225.712 554.974 227.143 554.974 228.932C554.974 231.036 553.514 233.655 550.623 236.775L544.44 243.302H556.062V246.909H539.173V243.989L547.932 234.6C549.836 232.625 550.795 230.921 550.795 229.505C550.795 228.56 550.423 227.816 549.707 227.272C549.02 226.742 548.061 226.47 546.845 226.47C544.669 226.47 542.494 227.472 540.318 229.447L538.772 226.356C541.549 224.109 544.44 222.978 547.417 222.978Z" fill="#272727"/>
<path d="M575.247 223.035C578.481 223.035 580.972 224.094 582.689 226.184C584.435 228.245 585.323 231.208 585.323 235.058C585.323 238.879 584.435 241.842 582.689 243.931C580.972 245.992 578.481 247.023 575.247 247.023C571.998 247.023 569.493 245.992 567.747 243.931C565.986 241.842 565.113 238.879 565.113 235.058C565.113 231.208 565.986 228.245 567.747 226.184C569.493 224.094 571.998 223.035 575.247 223.035ZM575.247 226.184C571.239 226.184 569.235 229.147 569.235 235.058C569.235 240.94 571.239 243.874 575.247 243.874C579.254 243.874 581.258 240.94 581.258 235.058C581.258 229.147 579.254 226.184 575.247 226.184Z" fill="#272727"/>
<path d="M602.681 222.978C604.928 222.978 606.746 223.536 608.12 224.638C609.522 225.712 610.238 227.143 610.238 228.932C610.238 231.036 608.778 233.655 605.887 236.775L599.704 243.302H611.326V246.909H594.437V243.989L603.196 234.6C605.1 232.625 606.059 230.921 606.059 229.505C606.059 228.56 605.687 227.816 604.971 227.272C604.284 226.742 603.325 226.47 602.108 226.47C599.933 226.47 597.757 227.472 595.582 229.447L594.036 226.356C596.813 224.109 599.704 222.978 602.681 222.978Z" fill="#272727"/>
<path d="M624.098 237.519H631.14V231.852H634.861V237.519H638.354V241.069H634.861V246.908H631.14V241.069H619.805V238.092L627.934 223.15H631.77L624.098 237.519Z" fill="#272727"/>
<path d="M94.3449 309.243C102.503 309.243 109.86 311.404 116.386 315.712L111.978 325.044C105.566 321.151 99.4115 319.205 93.5434 319.205C90.366 319.205 87.8756 319.777 86.0436 320.922C84.2116 322.067 83.2956 323.699 83.2956 325.788C83.2956 327.892 84.1258 329.681 85.8146 331.17C87.4892 332.63 89.5931 333.689 92.1121 334.376C94.6311 335.063 97.3505 335.95 100.299 337.009C103.233 338.04 105.967 339.156 108.486 340.33C111.005 341.518 113.08 343.35 114.726 345.826C116.358 348.316 117.188 351.322 117.188 354.871C117.188 360.367 114.969 364.776 110.547 368.096C106.153 371.388 100.442 373.02 93.4289 373.02C88.6485 373.02 84.0113 372.132 79.5171 370.329C75.0087 368.54 71.0728 366.121 67.7236 363.058L72.3036 353.841C75.4667 356.789 78.9589 359.051 82.7804 360.654C86.5875 362.257 90.2229 363.058 93.6579 363.058C97.3505 363.058 100.242 362.4 102.303 361.054C104.392 359.68 105.451 357.791 105.451 355.387C105.451 353.254 104.607 351.465 102.932 350.005C101.244 348.517 99.1253 347.429 96.5776 346.742C94.0586 346.026 91.3249 345.182 88.3909 344.223C85.4425 343.235 82.7231 342.191 80.2041 341.074C77.6851 339.929 75.5812 338.14 73.9066 335.693C72.2178 333.217 71.3876 330.24 71.3876 326.762C71.3876 321.423 73.4773 317.172 77.6851 313.995C81.8787 310.832 87.4319 309.243 94.3449 309.243Z" fill="#272727"/>
<path d="M139.887 309.701H164.962C172.891 309.701 179.046 311.576 183.397 315.312C187.748 319.062 189.923 324.343 189.923 331.17C189.923 338.312 187.748 343.851 183.397 347.772C179.046 351.708 172.891 353.669 164.962 353.669H150.478V372.676H139.887V309.701ZM150.478 319.205V344.166H164.504C174.652 344.166 179.733 339.929 179.733 331.456C179.733 323.298 174.652 319.205 164.504 319.205H150.478Z" fill="#272727"/>
<path d="M255.682 319.205H221.275V336.208H252.075V345.769H221.275V363.115H256.713V372.676H210.684V309.701H255.682V319.205Z" fill="#272727"/>
<path d="M320.599 358.478H288.825L282.814 372.676H271.765L299.531 309.701H310.466L338.003 372.676H326.61L320.599 358.478ZM316.534 349.032L304.683 321.037L292.775 349.032H316.534Z" fill="#272727"/>
<path d="M398.616 372.676L377.892 344.853L367.186 356.646V372.676H356.595V309.701H367.186V342.276L397.242 309.701H409.78L385.391 336.609L411.383 372.676H398.616Z" fill="#272727"/>
<path d="M476.438 319.205H442.031V336.208H472.831V345.769H442.031V363.115H477.468V372.676H431.439V309.701H476.438V319.205Z" fill="#272727"/>
<path d="M541.355 358.478H509.581L503.57 372.676H492.521L520.287 309.701H531.222L558.759 372.676H547.366L541.355 358.478ZM537.29 349.032L525.439 321.037L513.531 349.032H537.29Z" fill="#272727"/>
<path d="M598.018 309.243C606.176 309.243 613.532 311.404 620.059 315.712L615.651 325.044C609.239 321.151 603.084 319.205 597.216 319.205C594.039 319.205 591.548 319.777 589.716 320.922C587.884 322.067 586.968 323.699 586.968 325.788C586.968 327.892 587.799 329.681 589.487 331.17C591.162 332.63 593.266 333.689 595.785 334.376C598.304 335.063 601.023 335.95 603.972 337.009C606.906 338.04 609.639 339.156 612.158 340.33C614.677 341.518 616.753 343.35 618.399 345.826C620.03 348.316 620.86 351.322 620.86 354.871C620.86 360.367 618.642 364.776 614.219 368.096C609.826 371.388 604.115 373.02 597.102 373.02C592.321 373.02 587.684 372.132 583.19 370.329C578.682 368.54 574.746 366.121 571.396 363.058L575.976 353.841C579.14 356.789 582.632 359.051 586.453 360.654C590.26 362.257 593.896 363.058 597.331 363.058C601.023 363.058 603.914 362.4 605.975 361.054C608.065 359.68 609.124 357.791 609.124 355.387C609.124 353.254 608.28 351.465 606.605 350.005C604.916 348.517 602.798 347.429 600.25 346.742C597.731 346.026 594.998 345.182 592.064 344.223C589.115 343.235 586.396 342.191 583.877 341.074C581.358 339.929 579.254 338.14 577.579 335.693C575.891 333.217 575.06 330.24 575.06 326.762C575.06 321.423 577.15 317.172 581.358 313.995C585.552 310.832 591.105 309.243 598.018 309.243Z" fill="#272727"/>
<path d="M669.38 351.723V372.676H658.846V352.066L635.373 309.701H646.079L664.055 340.387L681.688 309.701H692.509L669.38 351.723Z" fill="#272727"/>
</svg>
