<svg xmlns="http://www.w3.org/2000/svg" xmlns:xlink="http://www.w3.org/1999/xlink" width="500" zoomAndPan="magnify" viewBox="0 0 375 374.999991" height="500" preserveAspectRatio="xMidYMid meet" version="1.0"><defs><g/><clipPath id="06474c7a5d"><path d="M 154.953125 145 L 194 145 L 194 188.90625 L 154.953125 188.90625 Z M 154.953125 145 " clip-rule="nonzero"/></clipPath><clipPath id="861214ab1a"><path d="M 185 133.40625 L 223.132812 133.40625 L 223.132812 178 L 185 178 Z M 185 133.40625 " clip-rule="nonzero"/></clipPath></defs><path fill="#00c178" d="M 172.683594 165.015625 L 176.132812 165.015625 L 174.40625 160.878906 Z M 172.683594 165.015625 " fill-opacity="1" fill-rule="nonzero"/><g clip-path="url(#06474c7a5d)"><path fill="#00c178" d="M 180.945312 173.429688 C 180.800781 173.5 180.644531 173.523438 180.484375 173.523438 C 180.015625 173.523438 179.5625 173.246094 179.367188 172.769531 L 177.144531 167.445312 L 171.671875 167.445312 L 169.449219 172.769531 C 169.1875 173.40625 168.472656 173.695312 167.863281 173.429688 C 167.246094 173.175781 166.9375 172.457031 167.207031 171.851562 L 169.714844 165.84375 C 169.726562 165.78125 169.75 165.722656 169.785156 165.671875 L 173.285156 157.257812 C 173.46875 156.792969 173.921875 156.503906 174.40625 156.503906 C 174.894531 156.503906 175.339844 156.792969 175.523438 157.257812 L 179.027344 165.671875 C 179.066406 165.722656 179.089844 165.78125 179.101562 165.84375 L 181.605469 171.851562 C 181.871094 172.457031 181.566406 173.175781 180.945312 173.429688 Z M 193.722656 162.753906 C 193.6875 162.378906 193.644531 162.011719 193.566406 161.648438 C 193.503906 161.265625 193.433594 160.914062 193.347656 160.554688 C 193.335938 160.503906 193.324219 160.457031 193.3125 160.40625 C 193.265625 160.160156 193.191406 159.929688 193.117188 159.6875 C 193.117188 159.664062 193.117188 159.652344 193.105469 159.628906 C 193.09375 159.554688 193.070312 159.484375 193.046875 159.410156 C 193 159.21875 192.9375 159.019531 192.859375 158.835938 C 192.824219 158.726562 192.792969 158.605469 192.75 158.496094 C 192.652344 158.21875 192.542969 157.949219 192.4375 157.683594 C 192.328125 157.414062 192.21875 157.160156 192.097656 156.902344 C 191.917969 156.492188 191.710938 156.09375 191.5 155.699219 C 191.476562 155.664062 191.460938 155.625 191.4375 155.601562 C 191.355469 155.445312 191.269531 155.289062 191.171875 155.144531 C 191.160156 155.105469 191.136719 155.070312 191.113281 155.035156 C 191.050781 154.90625 190.980469 154.796875 190.894531 154.675781 C 190.859375 154.605469 190.808594 154.542969 190.773438 154.484375 C 190.664062 154.316406 190.539062 154.144531 190.429688 153.976562 C 190.398438 153.929688 190.367188 153.878906 190.332031 153.835938 C 190.332031 153.824219 190.320312 153.824219 190.308594 153.8125 C 190.246094 153.714844 190.1875 153.621094 190.113281 153.535156 C 190.066406 153.460938 190.007812 153.390625 189.957031 153.316406 C 189.898438 153.246094 189.847656 153.183594 189.800781 153.113281 C 189.789062 153.085938 189.765625 153.074219 189.738281 153.050781 C 189.667969 152.953125 189.605469 152.859375 189.523438 152.765625 C 189.5 152.730469 189.457031 152.695312 189.433594 152.660156 C 189.3125 152.5 189.179688 152.355469 189.042969 152.210938 C 188.960938 152.113281 188.875 152.019531 188.777344 151.921875 C 188.765625 151.898438 188.742188 151.871094 188.71875 151.847656 C 188.609375 151.726562 188.496094 151.613281 188.386719 151.503906 C 188.335938 151.445312 188.289062 151.394531 188.242188 151.359375 C 188.035156 151.140625 187.828125 150.949219 187.625 150.765625 C 187.613281 150.742188 187.613281 150.742188 187.601562 150.742188 C 187.46875 150.617188 187.339844 150.496094 187.207031 150.386719 C 187.085938 150.277344 186.953125 150.167969 186.820312 150.058594 C 186.808594 150.046875 186.808594 150.046875 186.796875 150.035156 L 186.796875 150.023438 C 186.613281 149.878906 186.433594 149.734375 186.246094 149.582031 L 186.234375 149.582031 C 185.8125 149.253906 185.375 148.941406 184.921875 148.652344 C 184.835938 148.589844 184.742188 148.523438 184.644531 148.464844 C 184.195312 148.199219 183.742188 147.933594 183.273438 147.703125 C 183.058594 147.582031 182.84375 147.464844 182.613281 147.371094 C 181.832031 146.996094 181.03125 146.691406 180.195312 146.421875 C 180.050781 146.382812 179.898438 146.335938 179.753906 146.300781 C 179.210938 146.140625 178.636719 146.007812 178.066406 145.902344 C 177.824219 145.851562 177.578125 145.816406 177.335938 145.78125 C 176.828125 145.695312 176.300781 145.648438 175.78125 145.609375 C 175.546875 145.585938 175.328125 145.585938 175.097656 145.574219 C 174.871094 145.5625 174.632812 145.5625 174.40625 145.5625 C 163.679688 145.5625 154.953125 154.289062 154.953125 165.015625 C 154.953125 165.375 154.964844 165.746094 154.988281 166.121094 C 155.011719 166.71875 155.074219 167.3125 155.171875 167.910156 C 155.195312 168.03125 155.207031 168.164062 155.230469 168.296875 C 155.304688 168.6875 155.375 169.0625 155.460938 169.4375 C 155.476562 169.476562 155.476562 169.511719 155.484375 169.546875 C 155.574219 169.878906 155.660156 170.195312 155.746094 170.507812 C 155.769531 170.59375 155.792969 170.667969 155.816406 170.738281 C 155.925781 171.105469 156.046875 171.457031 156.179688 171.808594 C 156.324219 172.203125 156.480469 172.5625 156.644531 172.945312 C 156.753906 173.199219 156.875 173.453125 157.007812 173.707031 C 157.152344 174.003906 157.308594 174.292969 157.46875 174.582031 C 157.640625 174.875 157.8125 175.15625 157.992188 175.433594 C 158.164062 175.714844 158.355469 175.992188 158.550781 176.261719 C 159.183594 177.152344 159.890625 178 160.675781 178.777344 C 160.851562 178.949219 161.019531 179.105469 161.203125 179.28125 L 160.984375 179.992188 L 158.644531 187.761719 C 158.644531 187.773438 158.640625 187.804688 158.640625 187.816406 C 158.511719 188.285156 158.6875 188.78125 159.085938 189.089844 C 159.292969 189.246094 159.558594 189.332031 159.820312 189.332031 C 160.046875 189.332031 160.265625 189.273438 160.472656 189.140625 L 168.570312 183.996094 L 169.019531 183.703125 C 169.1875 183.753906 169.34375 183.800781 169.519531 183.835938 C 169.738281 183.898438 169.957031 183.945312 170.171875 183.996094 C 170.300781 184.03125 170.433594 184.042969 170.554688 184.078125 C 170.964844 184.164062 171.363281 184.238281 171.78125 184.285156 C 172.15625 184.34375 172.542969 184.382812 172.921875 184.40625 C 173.007812 184.417969 173.082031 184.417969 173.152344 184.417969 C 173.570312 184.453125 173.992188 184.464844 174.40625 184.464844 C 175.28125 184.464844 176.144531 184.40625 176.996094 184.296875 C 177.25 184.261719 177.503906 184.222656 177.757812 184.175781 C 178.03125 184.128906 178.296875 184.078125 178.5625 184.019531 C 178.78125 183.96875 178.992188 183.921875 179.199219 183.863281 C 179.511719 183.789062 179.828125 183.691406 180.148438 183.597656 C 180.425781 183.503906 180.703125 183.421875 180.988281 183.3125 C 181.265625 183.214844 181.519531 183.117188 181.785156 183.007812 C 182.003906 182.925781 182.226562 182.828125 182.433594 182.730469 C 182.710938 182.609375 182.988281 182.476562 183.261719 182.328125 C 183.476562 182.21875 183.695312 182.097656 183.914062 181.976562 C 184.609375 181.589844 185.273438 181.160156 185.917969 180.6875 C 186.1875 180.484375 186.457031 180.269531 186.722656 180.054688 C 188.121094 178.910156 189.359375 177.585938 190.386719 176.09375 C 190.539062 175.871094 190.6875 175.652344 190.820312 175.433594 C 190.835938 175.421875 190.847656 175.410156 190.847656 175.398438 C 190.992188 175.179688 191.125 174.945312 191.246094 174.726562 C 191.457031 174.402344 191.636719 174.0625 191.808594 173.707031 C 191.867188 173.574219 191.941406 173.429688 192 173.296875 C 192.242188 172.804688 192.460938 172.296875 192.640625 171.773438 C 192.835938 171.265625 193.011719 170.738281 193.144531 170.207031 C 193.167969 170.171875 193.179688 170.132812 193.179688 170.085938 C 193.238281 169.90625 193.289062 169.710938 193.324219 169.511719 C 193.335938 169.476562 193.347656 169.425781 193.347656 169.390625 C 193.398438 169.183594 193.445312 168.980469 193.492188 168.761719 C 193.585938 168.332031 193.65625 167.910156 193.699219 167.480469 C 193.742188 167.214844 193.777344 166.949219 193.785156 166.683594 L 193.785156 166.632812 C 193.796875 166.574219 193.796875 166.511719 193.796875 166.457031 C 193.808594 166.445312 193.808594 166.445312 193.808594 166.433594 C 193.820312 166.277344 193.839844 166.121094 193.839844 165.964844 C 193.851562 165.648438 193.863281 165.328125 193.863281 165.015625 C 193.863281 164.28125 193.820312 163.558594 193.742188 162.839844 C 193.742188 162.8125 193.742188 162.777344 193.722656 162.753906 " fill-opacity="1" fill-rule="nonzero"/></g><g clip-path="url(#861214ab1a)"><path fill="#00c178" d="M 211.269531 158.992188 C 211.898438 159.21875 212.246094 159.894531 212.039062 160.542969 C 211.871094 161.046875 211.390625 161.371094 210.882812 161.371094 C 210.761719 161.371094 210.625 161.34375 210.492188 161.308594 C 208.097656 160.503906 206.234375 159.484375 204.804688 158.351562 C 203.363281 159.484375 201.507812 160.503906 199.109375 161.308594 C 198.980469 161.34375 198.84375 161.371094 198.722656 161.371094 C 198.214844 161.371094 197.738281 161.046875 197.566406 160.542969 C 197.363281 159.894531 197.699219 159.21875 198.335938 158.992188 C 200.289062 158.351562 201.824219 157.535156 203.015625 156.648438 C 200.558594 153.890625 200.027344 150.910156 199.925781 149.207031 L 198.722656 149.207031 C 198.050781 149.207031 197.507812 148.664062 197.507812 147.992188 C 197.507812 147.320312 198.050781 146.777344 198.722656 146.777344 L 203.589844 146.777344 L 203.589844 145.5625 C 203.589844 144.890625 204.132812 144.347656 204.804688 144.347656 C 205.472656 144.347656 206.019531 144.890625 206.019531 145.5625 L 206.019531 146.777344 L 210.882812 146.777344 C 211.550781 146.777344 212.097656 147.320312 212.097656 147.992188 C 212.097656 148.664062 211.550781 149.207031 210.882812 149.207031 L 209.675781 149.207031 C 209.578125 150.910156 209.046875 153.890625 206.585938 156.648438 C 207.785156 157.535156 209.3125 158.339844 211.269531 158.992188 Z M 216.789062 167.117188 C 220.769531 163.449219 223.039062 158.292969 223.039062 152.859375 C 223.039062 142.128906 214.3125 133.398438 203.589844 133.398438 C 195.332031 133.398438 188.132812 138.617188 185.351562 146.070312 C 186.066406 146.488281 186.773438 146.945312 187.453125 147.453125 C 187.550781 147.519531 187.636719 147.59375 187.734375 147.664062 C 193.167969 151.824219 196.292969 158.148438 196.292969 165.015625 C 196.292969 165.964844 196.230469 166.875 196.125 167.789062 C 196.105469 167.910156 196.085938 168.03125 196.074219 168.140625 C 195.949219 168.980469 195.796875 169.796875 195.574219 170.582031 C 198.050781 171.722656 200.765625 172.308594 203.589844 172.308594 C 205.394531 172.308594 207.210938 172.054688 208.972656 171.542969 L 217.523438 176.976562 C 217.726562 177.109375 217.945312 177.175781 218.175781 177.175781 C 218.433594 177.175781 218.699219 177.085938 218.90625 176.929688 C 219.316406 176.613281 219.492188 176.09375 219.339844 175.605469 L 216.789062 167.117188 " fill-opacity="1" fill-rule="nonzero"/></g><path fill="#00c178" d="M 204.804688 155.035156 C 206.742188 152.820312 207.183594 150.507812 207.257812 149.207031 L 202.332031 149.207031 C 202.390625 150.507812 202.832031 152.835938 204.804688 155.035156 " fill-opacity="1" fill-rule="nonzero"/><g fill="#272727" fill-opacity="1"><g transform="translate(114.955609, 178.741395)"><g><path d="M 5.484375 -5.5 L 1.953125 -5.5 L 1.953125 -3.75 L 5.109375 -3.75 L 5.109375 -2.765625 L 1.953125 -2.765625 L 1.953125 -0.984375 L 5.59375 -0.984375 L 5.59375 0 L 0.859375 0 L 0.859375 -6.484375 L 5.484375 -6.484375 Z M 5.484375 -5.5 "/></g></g></g><g fill="#272727" fill-opacity="1"><g transform="translate(122.650033, 178.741395)"><g><path d="M 2.984375 -6.53125 C 3.828125 -6.53125 4.582031 -6.304688 5.25 -5.859375 L 4.796875 -4.90625 C 4.140625 -5.300781 3.507812 -5.5 2.90625 -5.5 C 2.570312 -5.5 2.3125 -5.441406 2.125 -5.328125 C 1.9375 -5.210938 1.84375 -5.046875 1.84375 -4.828125 C 1.84375 -4.609375 1.925781 -4.421875 2.09375 -4.265625 C 2.269531 -4.117188 2.488281 -4.007812 2.75 -3.9375 C 3.007812 -3.875 3.289062 -3.785156 3.59375 -3.671875 C 3.894531 -3.566406 4.175781 -3.453125 4.4375 -3.328125 C 4.695312 -3.210938 4.910156 -3.023438 5.078125 -2.765625 C 5.253906 -2.503906 5.34375 -2.191406 5.34375 -1.828125 C 5.34375 -1.265625 5.113281 -0.8125 4.65625 -0.46875 C 4.195312 -0.132812 3.609375 0.03125 2.890625 0.03125 C 2.398438 0.03125 1.921875 -0.0546875 1.453125 -0.234375 C 0.992188 -0.421875 0.585938 -0.671875 0.234375 -0.984375 L 0.71875 -1.9375 C 1.039062 -1.632812 1.394531 -1.398438 1.78125 -1.234375 C 2.175781 -1.066406 2.550781 -0.984375 2.90625 -0.984375 C 3.289062 -0.984375 3.585938 -1.050781 3.796875 -1.1875 C 4.015625 -1.332031 4.125 -1.53125 4.125 -1.78125 C 4.125 -2 4.035156 -2.179688 3.859375 -2.328125 C 3.691406 -2.484375 3.476562 -2.597656 3.21875 -2.671875 C 2.957031 -2.742188 2.675781 -2.828125 2.375 -2.921875 C 2.070312 -3.023438 1.789062 -3.132812 1.53125 -3.25 C 1.269531 -3.363281 1.050781 -3.546875 0.875 -3.796875 C 0.707031 -4.054688 0.625 -4.363281 0.625 -4.71875 C 0.625 -5.269531 0.835938 -5.707031 1.265625 -6.03125 C 1.703125 -6.363281 2.273438 -6.53125 2.984375 -6.53125 Z M 2.984375 -6.53125 "/></g></g></g><g fill="#272727" fill-opacity="1"><g transform="translate(130.029287, 178.741395)"><g><path d="M 5.28125 -5.5 L 3.21875 -5.5 L 3.21875 0 L 2.125 0 L 2.125 -5.5 L 0.078125 -5.5 L 0.078125 -6.484375 L 5.28125 -6.484375 Z M 5.28125 -5.5 "/></g></g></g><g fill="#272727" fill-opacity="1"><g transform="translate(137.009955, 178.741395)"><g><path d="M 0.859375 -6.484375 L 3.515625 -6.484375 C 4.484375 -6.484375 5.28125 -6.175781 5.90625 -5.5625 C 6.539062 -4.957031 6.859375 -4.179688 6.859375 -3.234375 C 6.859375 -2.296875 6.539062 -1.519531 5.90625 -0.90625 C 5.269531 -0.300781 4.460938 0 3.484375 0 L 0.859375 0 Z M 1.953125 -5.5 L 1.953125 -0.984375 L 3.546875 -0.984375 C 4.179688 -0.984375 4.707031 -1.191406 5.125 -1.609375 C 5.550781 -2.035156 5.765625 -2.578125 5.765625 -3.234375 C 5.765625 -3.890625 5.546875 -4.429688 5.109375 -4.859375 C 4.671875 -5.285156 4.132812 -5.5 3.5 -5.5 Z M 1.953125 -5.5 "/></g></g></g><g fill="#272727" fill-opacity="1"><g transform="translate(230.793477, 178.741395)"><g><path d="M 2.671875 -6.53125 C 3.285156 -6.53125 3.78125 -6.378906 4.15625 -6.078125 C 4.539062 -5.785156 4.734375 -5.394531 4.734375 -4.90625 C 4.734375 -4.332031 4.335938 -3.617188 3.546875 -2.765625 L 1.859375 -0.984375 L 5.03125 -0.984375 L 5.03125 0 L 0.421875 0 L 0.421875 -0.796875 L 2.8125 -3.359375 C 3.332031 -3.898438 3.59375 -4.363281 3.59375 -4.75 C 3.59375 -5.007812 3.492188 -5.210938 3.296875 -5.359375 C 3.109375 -5.503906 2.847656 -5.578125 2.515625 -5.578125 C 1.921875 -5.578125 1.328125 -5.304688 0.734375 -4.765625 L 0.3125 -5.609375 C 1.070312 -6.222656 1.859375 -6.53125 2.671875 -6.53125 Z M 2.671875 -6.53125 "/></g></g></g><g fill="#272727" fill-opacity="1"><g transform="translate(237.857571, 178.741395)"><g><path d="M 3.203125 -6.515625 C 4.085938 -6.515625 4.765625 -6.226562 5.234375 -5.65625 C 5.710938 -5.09375 5.953125 -4.285156 5.953125 -3.234375 C 5.953125 -2.191406 5.710938 -1.382812 5.234375 -0.8125 C 4.765625 -0.25 4.085938 0.03125 3.203125 0.03125 C 2.316406 0.03125 1.632812 -0.25 1.15625 -0.8125 C 0.675781 -1.382812 0.4375 -2.191406 0.4375 -3.234375 C 0.4375 -4.285156 0.675781 -5.09375 1.15625 -5.65625 C 1.632812 -6.226562 2.316406 -6.515625 3.203125 -6.515625 Z M 3.203125 -5.65625 C 2.109375 -5.65625 1.5625 -4.847656 1.5625 -3.234375 C 1.5625 -1.628906 2.109375 -0.828125 3.203125 -0.828125 C 4.296875 -0.828125 4.84375 -1.628906 4.84375 -3.234375 C 4.84375 -4.847656 4.296875 -5.65625 3.203125 -5.65625 Z M 3.203125 -5.65625 "/></g></g></g><g fill="#272727" fill-opacity="1"><g transform="translate(245.876424, 178.741395)"><g><path d="M 2.671875 -6.53125 C 3.285156 -6.53125 3.78125 -6.378906 4.15625 -6.078125 C 4.539062 -5.785156 4.734375 -5.394531 4.734375 -4.90625 C 4.734375 -4.332031 4.335938 -3.617188 3.546875 -2.765625 L 1.859375 -0.984375 L 5.03125 -0.984375 L 5.03125 0 L 0.421875 0 L 0.421875 -0.796875 L 2.8125 -3.359375 C 3.332031 -3.898438 3.59375 -4.363281 3.59375 -4.75 C 3.59375 -5.007812 3.492188 -5.210938 3.296875 -5.359375 C 3.109375 -5.503906 2.847656 -5.578125 2.515625 -5.578125 C 1.921875 -5.578125 1.328125 -5.304688 0.734375 -4.765625 L 0.3125 -5.609375 C 1.070312 -6.222656 1.859375 -6.53125 2.671875 -6.53125 Z M 2.671875 -6.53125 "/></g></g></g><g fill="#272727" fill-opacity="1"><g transform="translate(252.940519, 178.741395)"><g><path d="M 1.453125 -2.5625 L 3.375 -2.5625 L 3.375 -4.109375 L 4.390625 -4.109375 L 4.390625 -2.5625 L 5.34375 -2.5625 L 5.34375 -1.59375 L 4.390625 -1.59375 L 4.390625 0 L 3.375 0 L 3.375 -1.59375 L 0.28125 -1.59375 L 0.28125 -2.40625 L 2.5 -6.484375 L 3.546875 -6.484375 Z M 1.453125 -2.5625 "/></g></g></g><g fill="#272727" fill-opacity="1"><g transform="translate(101.904006, 213.066622)"><g><path d="M 7.90625 -17.3125 C 10.132812 -17.3125 12.140625 -16.722656 13.921875 -15.546875 L 12.71875 -13 C 10.96875 -14.0625 9.289062 -14.59375 7.6875 -14.59375 C 6.820312 -14.59375 6.140625 -14.4375 5.640625 -14.125 C 5.140625 -13.8125 4.890625 -13.367188 4.890625 -12.796875 C 4.890625 -12.222656 5.117188 -11.734375 5.578125 -11.328125 C 6.035156 -10.929688 6.609375 -10.640625 7.296875 -10.453125 C 7.984375 -10.265625 8.726562 -10.023438 9.53125 -9.734375 C 10.332031 -9.453125 11.078125 -9.148438 11.765625 -8.828125 C 12.453125 -8.503906 13.019531 -8.003906 13.46875 -7.328125 C 13.914062 -6.648438 14.140625 -5.828125 14.140625 -4.859375 C 14.140625 -3.359375 13.535156 -2.15625 12.328125 -1.25 C 11.128906 -0.351562 9.570312 0.09375 7.65625 0.09375 C 6.351562 0.09375 5.085938 -0.148438 3.859375 -0.640625 C 2.628906 -1.128906 1.554688 -1.789062 0.640625 -2.625 L 1.890625 -5.140625 C 2.753906 -4.335938 3.707031 -3.71875 4.75 -3.28125 C 5.789062 -2.84375 6.78125 -2.625 7.71875 -2.625 C 8.726562 -2.625 9.515625 -2.804688 10.078125 -3.171875 C 10.648438 -3.546875 10.9375 -4.0625 10.9375 -4.71875 C 10.9375 -5.300781 10.707031 -5.789062 10.25 -6.1875 C 9.789062 -6.59375 9.210938 -6.890625 8.515625 -7.078125 C 7.828125 -7.273438 7.082031 -7.503906 6.28125 -7.765625 C 5.476562 -8.035156 4.734375 -8.320312 4.046875 -8.625 C 3.359375 -8.9375 2.785156 -9.425781 2.328125 -10.09375 C 1.867188 -10.769531 1.640625 -11.582031 1.640625 -12.53125 C 1.640625 -13.988281 2.210938 -15.148438 3.359375 -16.015625 C 4.503906 -16.878906 6.019531 -17.3125 7.90625 -17.3125 Z M 7.90625 -17.3125 "/></g></g></g><g fill="#272727" fill-opacity="1"><g transform="translate(119.974179, 213.066622)"><g><path d="M 2.265625 -17.1875 L 9.109375 -17.1875 C 11.273438 -17.1875 12.953125 -16.675781 14.140625 -15.65625 C 15.328125 -14.632812 15.921875 -13.191406 15.921875 -11.328125 C 15.921875 -9.378906 15.328125 -7.867188 14.140625 -6.796875 C 12.953125 -5.722656 11.273438 -5.1875 9.109375 -5.1875 L 5.15625 -5.1875 L 5.15625 0 L 2.265625 0 Z M 5.15625 -14.59375 L 5.15625 -7.78125 L 8.984375 -7.78125 C 11.753906 -7.78125 13.140625 -8.9375 13.140625 -11.25 C 13.140625 -13.476562 11.753906 -14.59375 8.984375 -14.59375 Z M 5.15625 -14.59375 "/></g></g></g><g fill="#272727" fill-opacity="1"><g transform="translate(139.296438, 213.066622)"><g><path d="M 14.546875 -14.59375 L 5.15625 -14.59375 L 5.15625 -9.953125 L 13.5625 -9.953125 L 13.5625 -7.34375 L 5.15625 -7.34375 L 5.15625 -2.609375 L 14.828125 -2.609375 L 14.828125 0 L 2.265625 0 L 2.265625 -17.1875 L 14.546875 -17.1875 Z M 14.546875 -14.59375 "/></g></g></g><g fill="#272727" fill-opacity="1"><g transform="translate(158.201341, 213.066622)"><g><path d="M 13.359375 -3.875 L 4.6875 -3.875 L 3.046875 0 L 0.03125 0 L 7.609375 -17.1875 L 10.59375 -17.1875 L 18.109375 0 L 15 0 Z M 12.25 -6.453125 L 9.015625 -14.09375 L 5.765625 -6.453125 Z M 12.25 -6.453125 "/></g></g></g><g fill="#272727" fill-opacity="1"><g transform="translate(179.119411, 213.066622)"><g><path d="M 13.734375 0 L 8.078125 -7.59375 L 5.15625 -4.375 L 5.15625 0 L 2.265625 0 L 2.265625 -17.1875 L 5.15625 -17.1875 L 5.15625 -8.296875 L 13.359375 -17.1875 L 16.78125 -17.1875 L 10.125 -9.84375 L 17.21875 0 Z M 13.734375 0 "/></g></g></g><g fill="#272727" fill-opacity="1"><g transform="translate(199.546456, 213.066622)"><g><path d="M 14.546875 -14.59375 L 5.15625 -14.59375 L 5.15625 -9.953125 L 13.5625 -9.953125 L 13.5625 -7.34375 L 5.15625 -7.34375 L 5.15625 -2.609375 L 14.828125 -2.609375 L 14.828125 0 L 2.265625 0 L 2.265625 -17.1875 L 14.546875 -17.1875 Z M 14.546875 -14.59375 "/></g></g></g><g fill="#272727" fill-opacity="1"><g transform="translate(218.451362, 213.066622)"><g><path d="M 13.359375 -3.875 L 4.6875 -3.875 L 3.046875 0 L 0.03125 0 L 7.609375 -17.1875 L 10.59375 -17.1875 L 18.109375 0 L 15 0 Z M 12.25 -6.453125 L 9.015625 -14.09375 L 5.765625 -6.453125 Z M 12.25 -6.453125 "/></g></g></g><g fill="#272727" fill-opacity="1"><g transform="translate(239.369432, 213.066622)"><g><path d="M 7.90625 -17.3125 C 10.132812 -17.3125 12.140625 -16.722656 13.921875 -15.546875 L 12.71875 -13 C 10.96875 -14.0625 9.289062 -14.59375 7.6875 -14.59375 C 6.820312 -14.59375 6.140625 -14.4375 5.640625 -14.125 C 5.140625 -13.8125 4.890625 -13.367188 4.890625 -12.796875 C 4.890625 -12.222656 5.117188 -11.734375 5.578125 -11.328125 C 6.035156 -10.929688 6.609375 -10.640625 7.296875 -10.453125 C 7.984375 -10.265625 8.726562 -10.023438 9.53125 -9.734375 C 10.332031 -9.453125 11.078125 -9.148438 11.765625 -8.828125 C 12.453125 -8.503906 13.019531 -8.003906 13.46875 -7.328125 C 13.914062 -6.648438 14.140625 -5.828125 14.140625 -4.859375 C 14.140625 -3.359375 13.535156 -2.15625 12.328125 -1.25 C 11.128906 -0.351562 9.570312 0.09375 7.65625 0.09375 C 6.351562 0.09375 5.085938 -0.148438 3.859375 -0.640625 C 2.628906 -1.128906 1.554688 -1.789062 0.640625 -2.625 L 1.890625 -5.140625 C 2.753906 -4.335938 3.707031 -3.71875 4.75 -3.28125 C 5.789062 -2.84375 6.78125 -2.625 7.71875 -2.625 C 8.726562 -2.625 9.515625 -2.804688 10.078125 -3.171875 C 10.648438 -3.546875 10.9375 -4.0625 10.9375 -4.71875 C 10.9375 -5.300781 10.707031 -5.789062 10.25 -6.1875 C 9.789062 -6.59375 9.210938 -6.890625 8.515625 -7.078125 C 7.828125 -7.273438 7.082031 -7.503906 6.28125 -7.765625 C 5.476562 -8.035156 4.734375 -8.320312 4.046875 -8.625 C 3.359375 -8.9375 2.785156 -9.425781 2.328125 -10.09375 C 1.867188 -10.769531 1.640625 -11.582031 1.640625 -12.53125 C 1.640625 -13.988281 2.210938 -15.148438 3.359375 -16.015625 C 4.503906 -16.878906 6.019531 -17.3125 7.90625 -17.3125 Z M 7.90625 -17.3125 "/></g></g></g><g fill="#272727" fill-opacity="1"><g transform="translate(257.439606, 213.066622)"><g><path d="M 9.3125 -5.71875 L 9.3125 0 L 6.4375 0 L 6.4375 -5.625 L 0.03125 -17.1875 L 2.953125 -17.1875 L 7.859375 -8.8125 L 12.671875 -17.1875 L 15.625 -17.1875 Z M 9.3125 -5.71875 "/></g></g></g></svg>